<?xml version="1.0" standalone="no"?>
<!DOCTYPE svg PUBLIC "-//W3C//DTD SVG 20010904//EN"
 "http://www.w3.org/TR/2001/REC-SVG-20010904/DTD/svg10.dtd">
<svg version="1.0" xmlns="http://www.w3.org/2000/svg"
 width="512.000000pt" height="512.000000pt" viewBox="0 0 512.000000 512.000000"
 preserveAspectRatio="xMidYMid meet">

<g transform="translate(0.000000,512.000000) scale(0.100000,-0.100000)"
fill="#000000" stroke="none">
<path d="M2388 5109 c-167 -20 -363 -84 -514 -170 -353 -202 -596 -532 -690
-939 -15 -63 -18 -143 -21 -512 l-4 -438 -220 0 -219 0 0 -1525 0 -1525 1840
0 1840 0 0 1525 0 1525 -220 0 -220 0 0 385 c0 289 -4 409 -15 483 -27 180
-81 339 -166 487 -284 495 -824 769 -1391 704z m338 -304 c476 -77 835 -433
920 -910 10 -60 14 -177 14 -462 l0 -383 -164 0 -164 0 -5 388 c-4 427 -7 450
-71 585 -43 93 -80 146 -152 219 -106 107 -238 180 -389 213 -114 26 -282 17
-390 -19 -246 -83 -421 -263 -506 -521 -22 -67 -23 -85 -27 -467 l-3 -398
-165 0 -164 0 0 388 c0 217 5 416 10 452 95 593 667 1011 1256 915z m-45 -651
c154 -46 265 -150 321 -302 20 -53 22 -80 26 -429 l4 -373 -471 0 -471 0 0
344 c0 192 5 367 10 397 32 168 170 319 333 363 71 19 182 19 248 0z m1419
-2629 l0 -1225 -1540 0 -1540 0 0 1225 0 1225 1540 0 1540 0 0 -1225z"/>
<path d="M2435 2251 c-253 -72 -406 -333 -340 -580 35 -132 131 -252 250 -310
l65 -32 0 -235 0 -234 150 0 150 0 0 235 0 235 62 31 c125 63 221 184 253 320
20 85 19 141 -4 227 -45 172 -171 298 -343 343 -87 23 -164 23 -243 0z m203
-302 c167 -81 109 -339 -78 -339 -191 0 -250 262 -76 341 54 24 100 24 154 -2z"/>
</g>
</svg>
