<?xml version="1.0" standalone="no"?>
<!DOCTYPE svg PUBLIC "-//W3C//DTD SVG 20010904//EN"
 "http://www.w3.org/TR/2001/REC-SVG-20010904/DTD/svg10.dtd">
<svg version="1.0" xmlns="http://www.w3.org/2000/svg"
 width="512.000000pt" height="512.000000pt" viewBox="0 0 512.000000 512.000000"
 preserveAspectRatio="xMidYMid meet">

<g transform="translate(0.000000,512.000000) scale(0.100000,-0.100000)"
fill="#000000" stroke="none">
<path d="M2380 5114 c-154 -17 -230 -29 -330 -50 -793 -167 -1493 -738 -1831
-1494 -94 -210 -156 -424 -196 -676 -21 -134 -24 -516 -5 -639 79 -502 252
-902 548 -1272 426 -532 1006 -863 1689 -964 115 -18 501 -18 610 -1 502 79
901 251 1272 548 532 426 863 1006 964 1689 18 115 18 501 1 610 -55 347 -150
636 -298 899 -406 725 -1090 1204 -1901 1331 -93 15 -448 28 -523 19z m535
-223 c519 -87 957 -318 1330 -703 358 -367 567 -786 651 -1303 14 -82 18 -165
18 -325 0 -160 -4 -243 -18 -325 -84 -517 -293 -935 -651 -1304 -379 -390
-817 -618 -1360 -707 -154 -26 -496 -26 -650 0 -543 89 -981 317 -1360 707
-358 369 -567 787 -651 1304 -26 154 -26 496 0 650 84 517 293 935 651 1304
411 424 927 672 1505 725 108 10 418 -4 535 -23z"/>
<path d="M2355 4679 c-221 -22 -439 -76 -635 -157 -169 -69 -332 -161 -370
-209 -30 -38 -26 -88 9 -124 42 -41 80 -39 166 12 267 157 501 236 815 275
566 70 1151 -138 1575 -561 315 -315 503 -697 560 -1138 72 -561 -137 -1148
-560 -1572 -315 -315 -697 -503 -1138 -560 -333 -43 -686 15 -1020 169 -390
178 -765 553 -943 943 -276 600 -238 1253 105 1838 51 86 53 124 12 166 -36
35 -86 39 -124 9 -65 -51 -200 -316 -265 -520 -255 -796 -62 -1601 522 -2186
200 -200 437 -362 678 -464 801 -339 1689 -161 2314 464 407 407 634 943 634
1496 0 728 -400 1425 -1046 1822 -379 234 -850 342 -1289 297z"/>
<path d="M2524 4250 c-12 -4 -31 -21 -43 -36 -19 -24 -21 -39 -21 -155 0 -126
1 -129 28 -159 17 -19 40 -33 63 -36 31 -5 42 -1 70 24 l34 30 0 142 0 142
-33 29 c-33 29 -60 35 -98 19z"/>
<path d="M1095 4081 c-93 -40 -73 -171 28 -188 32 -5 41 -1 72 30 44 44 47 84
8 127 -30 32 -75 45 -108 31z"/>
<path d="M1381 3776 c-47 -26 -63 -84 -37 -134 16 -29 135 -149 176 -176 40
-26 78 -20 116 18 59 59 49 92 -65 209 -93 96 -134 114 -190 83z"/>
<path d="M3645 3778 c-29 -16 -133 -117 -166 -162 -39 -53 -38 -89 5 -132 59
-59 92 -49 209 65 71 69 97 106 97 140 0 73 -83 124 -145 89z"/>
<path d="M2524 3650 c-12 -4 -31 -21 -43 -36 -21 -26 -21 -34 -21 -398 l-1
-371 -51 -30 c-167 -96 -196 -327 -58 -465 138 -138 369 -109 465 58 l30 51
272 1 273 0 32 29 c27 24 33 36 33 71 0 35 -6 47 -33 71 l-32 29 -274 0 -274
0 -13 31 c-16 40 -97 122 -137 138 l-31 13 -3 380 -3 380 -33 29 c-33 29 -60
35 -98 19z m106 -1025 c35 -36 34 -95 -3 -132 -60 -61 -162 -19 -162 66 0 89
101 130 165 66z"/>
<path d="M925 2651 c-64 -27 -81 -110 -32 -158 27 -27 30 -28 162 -31 l135 -4
35 35 c47 47 47 87 1 133 l-34 34 -123 -1 c-68 0 -133 -4 -144 -8z"/>
<path d="M3924 2650 c-32 -13 -64 -59 -64 -91 0 -18 11 -41 29 -61 l29 -33
135 -3 135 -4 33 30 c28 25 34 37 34 72 0 35 -6 47 -33 71 -32 29 -33 29 -155
28 -67 0 -132 -4 -143 -9z"/>
<path d="M1504 1641 c-60 -44 -162 -155 -170 -185 -18 -75 47 -140 122 -122
30 8 141 110 185 170 39 53 38 89 -5 132 -43 43 -79 44 -132 5z"/>
<path d="M3484 1636 c-60 -60 -42 -109 88 -233 85 -81 138 -93 188 -43 50 50
38 103 -43 188 -124 130 -173 148 -233 88z"/>
<path d="M2524 1250 c-12 -4 -31 -21 -43 -36 -19 -24 -21 -39 -21 -155 0 -126
1 -129 28 -159 17 -19 40 -33 63 -36 31 -5 42 -1 70 24 l34 30 0 142 0 142
-33 29 c-33 29 -60 35 -98 19z"/>
</g>
</svg>
